<mxfile host="app.diagrams.net" agent="Mozilla/5.0 (X11; Linux x86_64) AppleWebKit/537.36 (KHTML, like Gecko) Chrome/129.0.0.0 Safari/537.36" version="24.8.0">
  <diagram name="Pàgina-1" id="YVHWd9X6C8wZxe6zpNKP">
    <mxGraphModel dx="1311" dy="696" grid="1" gridSize="10" guides="1" tooltips="1" connect="1" arrows="1" fold="1" page="1" pageScale="1" pageWidth="827" pageHeight="1169" math="0" shadow="0">
      <root>
        <mxCell id="0" />
        <mxCell id="1" parent="0" />
        <mxCell id="aUWjzx1JpL5L-3wllFqf-30" style="edgeStyle=orthogonalEdgeStyle;rounded=0;orthogonalLoop=1;jettySize=auto;html=1;exitX=0.5;exitY=0.5;exitDx=0;exitDy=0;exitPerimeter=0;entryX=0;entryY=0.5;entryDx=0;entryDy=0;" parent="1" source="W9gDoXs-om2xkna2XxOo-1" target="aUWjzx1JpL5L-3wllFqf-26" edge="1">
          <mxGeometry relative="1" as="geometry" />
        </mxCell>
        <mxCell id="aUWjzx1JpL5L-3wllFqf-31" style="edgeStyle=orthogonalEdgeStyle;rounded=0;orthogonalLoop=1;jettySize=auto;html=1;exitX=0.5;exitY=0.5;exitDx=0;exitDy=0;exitPerimeter=0;entryX=0;entryY=0.5;entryDx=0;entryDy=0;" parent="1" source="W9gDoXs-om2xkna2XxOo-1" target="aUWjzx1JpL5L-3wllFqf-27" edge="1">
          <mxGeometry relative="1" as="geometry" />
        </mxCell>
        <mxCell id="aUWjzx1JpL5L-3wllFqf-32" style="edgeStyle=orthogonalEdgeStyle;rounded=0;orthogonalLoop=1;jettySize=auto;html=1;exitX=0.5;exitY=0.5;exitDx=0;exitDy=0;exitPerimeter=0;entryX=0;entryY=0.5;entryDx=0;entryDy=0;" parent="1" source="W9gDoXs-om2xkna2XxOo-1" target="aUWjzx1JpL5L-3wllFqf-28" edge="1">
          <mxGeometry relative="1" as="geometry" />
        </mxCell>
        <mxCell id="aUWjzx1JpL5L-3wllFqf-55" style="edgeStyle=orthogonalEdgeStyle;rounded=0;orthogonalLoop=1;jettySize=auto;html=1;exitX=0.5;exitY=0.5;exitDx=0;exitDy=0;exitPerimeter=0;entryX=0;entryY=0.5;entryDx=0;entryDy=0;" parent="1" source="W9gDoXs-om2xkna2XxOo-1" target="aUWjzx1JpL5L-3wllFqf-54" edge="1">
          <mxGeometry relative="1" as="geometry" />
        </mxCell>
        <mxCell id="W9gDoXs-om2xkna2XxOo-1" value="Administrador" style="shape=umlActor;verticalLabelPosition=bottom;verticalAlign=top;html=1;outlineConnect=0;" parent="1" vertex="1">
          <mxGeometry x="820" y="470" width="40" height="80" as="geometry" />
        </mxCell>
        <mxCell id="aUWjzx1JpL5L-3wllFqf-21" style="edgeStyle=orthogonalEdgeStyle;rounded=0;orthogonalLoop=1;jettySize=auto;html=1;exitX=0.5;exitY=0.5;exitDx=0;exitDy=0;exitPerimeter=0;entryX=1;entryY=0.5;entryDx=0;entryDy=0;" parent="1" source="W9gDoXs-om2xkna2XxOo-2" target="aUWjzx1JpL5L-3wllFqf-18" edge="1">
          <mxGeometry relative="1" as="geometry" />
        </mxCell>
        <mxCell id="aUWjzx1JpL5L-3wllFqf-25" style="edgeStyle=orthogonalEdgeStyle;rounded=0;orthogonalLoop=1;jettySize=auto;html=1;exitX=0.5;exitY=0.5;exitDx=0;exitDy=0;exitPerimeter=0;entryX=1;entryY=0.5;entryDx=0;entryDy=0;" parent="1" source="W9gDoXs-om2xkna2XxOo-2" target="aUWjzx1JpL5L-3wllFqf-24" edge="1">
          <mxGeometry relative="1" as="geometry" />
        </mxCell>
        <mxCell id="aUWjzx1JpL5L-3wllFqf-50" style="edgeStyle=orthogonalEdgeStyle;rounded=0;orthogonalLoop=1;jettySize=auto;html=1;exitX=0.5;exitY=0.5;exitDx=0;exitDy=0;exitPerimeter=0;entryX=1;entryY=0.5;entryDx=0;entryDy=0;" parent="1" source="W9gDoXs-om2xkna2XxOo-2" target="aUWjzx1JpL5L-3wllFqf-49" edge="1">
          <mxGeometry relative="1" as="geometry" />
        </mxCell>
        <mxCell id="W9gDoXs-om2xkna2XxOo-2" value="Client" style="shape=umlActor;verticalLabelPosition=bottom;verticalAlign=top;html=1;outlineConnect=0;" parent="1" vertex="1">
          <mxGeometry x="520" y="490" width="40" height="80" as="geometry" />
        </mxCell>
        <mxCell id="aUWjzx1JpL5L-3wllFqf-10" style="edgeStyle=orthogonalEdgeStyle;rounded=0;orthogonalLoop=1;jettySize=auto;html=1;exitX=0.5;exitY=0.5;exitDx=0;exitDy=0;exitPerimeter=0;entryX=1;entryY=0.5;entryDx=0;entryDy=0;" parent="1" source="aUWjzx1JpL5L-3wllFqf-1" target="aUWjzx1JpL5L-3wllFqf-9" edge="1">
          <mxGeometry relative="1" as="geometry" />
        </mxCell>
        <mxCell id="aUWjzx1JpL5L-3wllFqf-11" style="edgeStyle=orthogonalEdgeStyle;rounded=0;orthogonalLoop=1;jettySize=auto;html=1;exitX=0.5;exitY=0.5;exitDx=0;exitDy=0;exitPerimeter=0;entryX=1;entryY=0.5;entryDx=0;entryDy=0;" parent="1" source="aUWjzx1JpL5L-3wllFqf-1" target="aUWjzx1JpL5L-3wllFqf-6" edge="1">
          <mxGeometry relative="1" as="geometry" />
        </mxCell>
        <mxCell id="aUWjzx1JpL5L-3wllFqf-1" value="Visitant" style="shape=umlActor;verticalLabelPosition=bottom;verticalAlign=top;html=1;outlineConnect=0;" parent="1" vertex="1">
          <mxGeometry x="500" y="60" width="40" height="80" as="geometry" />
        </mxCell>
        <mxCell id="aUWjzx1JpL5L-3wllFqf-6" value="Buscar eventos" style="ellipse;whiteSpace=wrap;html=1;" parent="1" vertex="1">
          <mxGeometry x="300" width="120" height="80" as="geometry" />
        </mxCell>
        <mxCell id="aUWjzx1JpL5L-3wllFqf-9" value="Consultar informacion sobre eventos." style="ellipse;whiteSpace=wrap;html=1;" parent="1" vertex="1">
          <mxGeometry x="300" y="120" width="120" height="80" as="geometry" />
        </mxCell>
        <mxCell id="aUWjzx1JpL5L-3wllFqf-18" value="Realitzar pagaments." style="ellipse;whiteSpace=wrap;html=1;" parent="1" vertex="1">
          <mxGeometry x="260" y="385" width="120" height="80" as="geometry" />
        </mxCell>
        <mxCell id="aUWjzx1JpL5L-3wllFqf-26" value="Gestionar el contenido del sitio." style="ellipse;whiteSpace=wrap;html=1;" parent="1" vertex="1">
          <mxGeometry x="940" y="300" width="120" height="80" as="geometry" />
        </mxCell>
        <mxCell id="aUWjzx1JpL5L-3wllFqf-27" value="Agregar,editar o eliminar eventos." style="ellipse;whiteSpace=wrap;html=1;" parent="1" vertex="1">
          <mxGeometry x="940" y="420" width="120" height="80" as="geometry" />
        </mxCell>
        <mxCell id="aUWjzx1JpL5L-3wllFqf-28" value="Responder a comentarios de usuarios." style="ellipse;whiteSpace=wrap;html=1;" parent="1" vertex="1">
          <mxGeometry x="940" y="530" width="120" height="80" as="geometry" />
        </mxCell>
        <mxCell id="aUWjzx1JpL5L-3wllFqf-34" style="edgeStyle=orthogonalEdgeStyle;rounded=0;orthogonalLoop=1;jettySize=auto;html=1;exitX=1;exitY=0.5;exitDx=0;exitDy=0;entryX=0;entryY=0.5;entryDx=0;entryDy=0;dashed=1;" parent="1" source="aUWjzx1JpL5L-3wllFqf-33" target="aUWjzx1JpL5L-3wllFqf-6" edge="1">
          <mxGeometry relative="1" as="geometry" />
        </mxCell>
        <mxCell id="eJ1M4TNb6GIxfWARTEAx-13" style="edgeStyle=orthogonalEdgeStyle;rounded=0;orthogonalLoop=1;jettySize=auto;html=1;exitX=1;exitY=0.5;exitDx=0;exitDy=0;dashed=1;" parent="1" source="aUWjzx1JpL5L-3wllFqf-33" target="aUWjzx1JpL5L-3wllFqf-9" edge="1">
          <mxGeometry relative="1" as="geometry" />
        </mxCell>
        <mxCell id="aUWjzx1JpL5L-3wllFqf-33" value="Registrarse" style="ellipse;whiteSpace=wrap;html=1;" parent="1" vertex="1">
          <mxGeometry x="30" y="60" width="120" height="80" as="geometry" />
        </mxCell>
        <mxCell id="aUWjzx1JpL5L-3wllFqf-39" value="" style="edgeStyle=orthogonalEdgeStyle;rounded=0;orthogonalLoop=1;jettySize=auto;html=1;dashed=1;" parent="1" source="aUWjzx1JpL5L-3wllFqf-35" target="aUWjzx1JpL5L-3wllFqf-18" edge="1">
          <mxGeometry relative="1" as="geometry" />
        </mxCell>
        <mxCell id="aUWjzx1JpL5L-3wllFqf-35" value="Recibir confirmación de pago" style="ellipse;whiteSpace=wrap;html=1;" parent="1" vertex="1">
          <mxGeometry x="30" y="385" width="120" height="80" as="geometry" />
        </mxCell>
        <mxCell id="aUWjzx1JpL5L-3wllFqf-24" value="Deja comentarios y reseñas." style="ellipse;whiteSpace=wrap;html=1;" parent="1" vertex="1">
          <mxGeometry x="260" y="595" width="120" height="80" as="geometry" />
        </mxCell>
        <mxCell id="aUWjzx1JpL5L-3wllFqf-42" value="&amp;lt;&amp;lt;extends&amp;gt;&amp;gt;" style="text;html=1;align=center;verticalAlign=middle;whiteSpace=wrap;rounded=0;" parent="1" vertex="1">
          <mxGeometry x="230" y="40" width="60" height="30" as="geometry" />
        </mxCell>
        <mxCell id="aUWjzx1JpL5L-3wllFqf-43" value="&amp;lt;&amp;lt;extends&amp;gt;&amp;gt;" style="text;html=1;align=center;verticalAlign=middle;whiteSpace=wrap;rounded=0;" parent="1" vertex="1">
          <mxGeometry x="175" y="395" width="60" height="30" as="geometry" />
        </mxCell>
        <mxCell id="aUWjzx1JpL5L-3wllFqf-49" value="&amp;nbsp;Reservar navegacion." style="ellipse;whiteSpace=wrap;html=1;" parent="1" vertex="1">
          <mxGeometry x="260" y="489.5" width="120" height="80" as="geometry" />
        </mxCell>
        <mxCell id="eJ1M4TNb6GIxfWARTEAx-17" style="edgeStyle=orthogonalEdgeStyle;rounded=0;orthogonalLoop=1;jettySize=auto;html=1;exitX=1;exitY=0.5;exitDx=0;exitDy=0;entryX=0;entryY=0.5;entryDx=0;entryDy=0;dashed=1;" parent="1" source="aUWjzx1JpL5L-3wllFqf-51" target="aUWjzx1JpL5L-3wllFqf-49" edge="1">
          <mxGeometry relative="1" as="geometry" />
        </mxCell>
        <mxCell id="aUWjzx1JpL5L-3wllFqf-51" value="Cancelar reserva" style="ellipse;whiteSpace=wrap;html=1;" parent="1" vertex="1">
          <mxGeometry x="30" y="489.5" width="120" height="80" as="geometry" />
        </mxCell>
        <mxCell id="aUWjzx1JpL5L-3wllFqf-53" value="&amp;lt;&amp;lt;extends&amp;gt;&amp;gt;" style="text;html=1;align=center;verticalAlign=middle;whiteSpace=wrap;rounded=0;" parent="1" vertex="1">
          <mxGeometry x="175" y="495" width="60" height="30" as="geometry" />
        </mxCell>
        <mxCell id="aUWjzx1JpL5L-3wllFqf-54" value="Cancelar reservas" style="ellipse;whiteSpace=wrap;html=1;" parent="1" vertex="1">
          <mxGeometry x="940" y="630" width="120" height="80" as="geometry" />
        </mxCell>
        <mxCell id="eJ1M4TNb6GIxfWARTEAx-12" value="&amp;lt;&amp;lt;extends&amp;gt;&amp;gt;" style="text;html=1;align=center;verticalAlign=middle;whiteSpace=wrap;rounded=0;" parent="1" vertex="1">
          <mxGeometry x="230" y="140" width="60" height="30" as="geometry" />
        </mxCell>
        <mxCell id="hd8iz4Rph2DKy2D4rCXw-1" value="Autenticador" style="shape=umlActor;verticalLabelPosition=bottom;verticalAlign=top;html=1;outlineConnect=0;" parent="1" vertex="1">
          <mxGeometry x="690" y="250" width="70" height="100" as="geometry" />
        </mxCell>
        <mxCell id="hd8iz4Rph2DKy2D4rCXw-6" style="edgeStyle=orthogonalEdgeStyle;rounded=0;orthogonalLoop=1;jettySize=auto;html=1;entryX=0.5;entryY=0;entryDx=0;entryDy=0;entryPerimeter=0;exitX=0.5;exitY=0.5;exitDx=0;exitDy=0;exitPerimeter=0;" parent="1" source="aUWjzx1JpL5L-3wllFqf-1" target="hd8iz4Rph2DKy2D4rCXw-1" edge="1">
          <mxGeometry relative="1" as="geometry" />
        </mxCell>
        <mxCell id="hd8iz4Rph2DKy2D4rCXw-7" style="edgeStyle=orthogonalEdgeStyle;rounded=0;orthogonalLoop=1;jettySize=auto;html=1;exitX=0.5;exitY=0.5;exitDx=0;exitDy=0;exitPerimeter=0;entryX=0.5;entryY=0;entryDx=0;entryDy=0;entryPerimeter=0;" parent="1" source="hd8iz4Rph2DKy2D4rCXw-1" target="W9gDoXs-om2xkna2XxOo-1" edge="1">
          <mxGeometry relative="1" as="geometry" />
        </mxCell>
        <mxCell id="hd8iz4Rph2DKy2D4rCXw-8" style="edgeStyle=orthogonalEdgeStyle;rounded=0;orthogonalLoop=1;jettySize=auto;html=1;exitX=0.5;exitY=0.5;exitDx=0;exitDy=0;exitPerimeter=0;entryX=0.5;entryY=0;entryDx=0;entryDy=0;entryPerimeter=0;" parent="1" source="hd8iz4Rph2DKy2D4rCXw-1" target="W9gDoXs-om2xkna2XxOo-2" edge="1">
          <mxGeometry relative="1" as="geometry" />
        </mxCell>
      </root>
    </mxGraphModel>
  </diagram>
</mxfile>
